<svg width="200" height="200" viewBox="0 0 200 200" fill="none" xmlns="http://www.w3.org/2000/svg">
  <defs>
    <linearGradient id="leafGradient" x1="0%" y1="0%" x2="100%" y2="100%">
      <stop offset="0%" style="stop-color:#10b981;stop-opacity:1" />
      <stop offset="50%" style="stop-color:#059669;stop-opacity:1" />
      <stop offset="100%" style="stop-color:#047857;stop-opacity:1" />
    </linearGradient>
    <filter id="shadow" x="-20%" y="-20%" width="140%" height="140%">
      <feDropShadow dx="0" dy="4" stdDeviation="8" flood-color="#10b981" flood-opacity="0.3"/>
    </filter>
  </defs>
  
  <!-- Основной лист -->
  <path d="M100 20 C140 40, 160 80, 150 120 C140 160, 100 180, 100 180 C100 180, 60 160, 50 120 C40 80, 60 40, 100 20 Z" 
        fill="url(#leafGradient)" filter="url(#shadow)"/>
  
  <!-- Прожилки листа -->
  <path d="M100 40 L100 160" stroke="#047857" stroke-width="2" opacity="0.6"/>
  <path d="M100 60 C120 65, 130 75, 125 90" stroke="#047857" stroke-width="1.5" opacity="0.4" fill="none"/>
  <path d="M100 60 C80 65, 70 75, 75 90" stroke="#047857" stroke-width="1.5" opacity="0.4" fill="none"/>
  <path d="M100 90 C115 95, 120 105, 115 120" stroke="#047857" stroke-width="1.5" opacity="0.4" fill="none"/>
  <path d="M100 90 C85 95, 80 105, 85 120" stroke="#047857" stroke-width="1.5" opacity="0.4" fill="none"/>
  
  <!-- Декоративные элементы -->
  <circle cx="130" cy="50" r="3" fill="#10b981" opacity="0.6">
    <animate attributeName="opacity" values="0.6;1;0.6" dur="2s" repeatCount="indefinite"/>
  </circle>
  <circle cx="70" cy="70" r="2" fill="#059669" opacity="0.7">
    <animate attributeName="opacity" values="0.7;1;0.7" dur="2.5s" repeatCount="indefinite"/>
  </circle>
  <circle cx="120" cy="130" r="2.5" fill="#047857" opacity="0.5">
    <animate attributeName="opacity" values="0.5;1;0.5" dur="3s" repeatCount="indefinite"/>
  </circle>
</svg>