<svg width="300" height="300" viewBox="0 0 300 300" fill="none" xmlns="http://www.w3.org/2000/svg">
  <defs>
    <linearGradient id="serviceGradient" x1="0%" y1="0%" x2="100%" y2="100%">
      <stop offset="0%" style="stop-color:#10b981;stop-opacity:1" />
      <stop offset="50%" style="stop-color:#059669;stop-opacity:1" />
      <stop offset="100%" style="stop-color:#047857;stop-opacity:1" />
    </linearGradient>
    <filter id="serviceShadow" x="-20%" y="-20%" width="140%" height="140%">
      <feDropShadow dx="0" dy="8" stdDeviation="12" flood-color="#10b981" flood-opacity="0.2"/>
    </filter>
  </defs>
  
  <!-- Основной круг -->
  <circle cx="150" cy="150" r="140" fill="url(#serviceGradient)" opacity="0.1" filter="url(#serviceShadow)"/>
  
  <!-- Центральная иконка - переработка -->
  <g transform="translate(150, 150)">
    <!-- Стрелки переработки -->
    <path d="M-40,-20 L-20,-40 L0,-20 L-20,0 Z" fill="url(#serviceGradient)" opacity="0.8">
      <animateTransform attributeName="transform" type="rotate" values="0;120;240;360" dur="6s" repeatCount="indefinite"/>
    </path>
    <path d="M20,-40 L40,-20 L20,0 L0,-20 Z" fill="url(#serviceGradient)" opacity="0.8">
      <animateTransform attributeName="transform" type="rotate" values="120;240;360;480" dur="6s" repeatCount="indefinite"/>
    </path>
    <path d="M40,20 L20,40 L0,20 L20,0 Z" fill="url(#serviceGradient)" opacity="0.8">
      <animateTransform attributeName="transform" type="rotate" values="240;360;480;600" dur="6s" repeatCount="indefinite"/>
    </path>
    
    <!-- Центральный элемент -->
    <circle cx="0" cy="0" r="15" fill="url(#serviceGradient)"/>
    <circle cx="0" cy="0" r="8" fill="white"/>
  </g>
  
  <!-- Орбитальные элементы -->
  <g>
    <!-- Листья -->
    <g transform="translate(80, 80)">
      <path d="M0,0 Q10,-10 20,0 Q10,10 0,0" fill="#10b981" opacity="0.6">
        <animateTransform attributeName="transform" type="rotate" values="0 10 0;360 10 0" dur="12s" repeatCount="indefinite"/>
      </path>
    </g>
    
    <g transform="translate(220, 80)">
      <path d="M0,0 Q-10,-10 -20,0 Q-10,10 0,0" fill="#059669" opacity="0.6">
        <animateTransform attributeName="transform" type="rotate" values="0 -10 0;-360 -10 0" dur="15s" repeatCount="indefinite"/>
      </path>
    </g>
    
    <g transform="translate(80, 220)">
      <path d="M0,0 Q10,10 20,0 Q10,-10 0,0" fill="#047857" opacity="0.6">
        <animateTransform attributeName="transform" type="rotate" values="0 10 0;360 10 0" dur="10s" repeatCount="indefinite"/>
      </path>
    </g>
    
    <g transform="translate(220, 220)">
      <path d="M0,0 Q-10,10 -20,0 Q-10,-10 0,0" fill="#10b981" opacity="0.6">
        <animateTransform attributeName="transform" type="rotate" values="0 -10 0;-360 -10 0" dur="18s" repeatCount="indefinite"/>
      </path>
    </g>
  </g>
  
  <!-- Декоративные точки -->
  <circle cx="50" cy="150" r="4" fill="#10b981" opacity="0.4">
    <animate attributeName="opacity" values="0.4;0.8;0.4" dur="2s" repeatCount="indefinite"/>
  </circle>
  <circle cx="250" cy="150" r="3" fill="#059669" opacity="0.5">
    <animate attributeName="opacity" values="0.5;0.9;0.5" dur="2.5s" repeatCount="indefinite"/>
  </circle>
  <circle cx="150" cy="50" r="5" fill="#047857" opacity="0.3">
    <animate attributeName="opacity" values="0.3;0.7;0.3" dur="3s" repeatCount="indefinite"/>
  </circle>
  <circle cx="150" cy="250" r="3.5" fill="#10b981" opacity="0.6">
    <animate attributeName="opacity" values="0.6;1;0.6" dur="1.8s" repeatCount="indefinite"/>
  </circle>
</svg>